<?xml version="1.0" encoding="iso-8859-1"?>
<!-- Generator: Adobe Illustrator 19.0.0, SVG Export Plug-In . SVG Version: 6.00 Build 0)  -->
<svg version="1.1" id="Capa_1" xmlns="http://www.w3.org/2000/svg" xmlns:xlink="http://www.w3.org/1999/xlink" x="0px" y="0px"
	 viewBox="0 0 512 512" style="enable-background:new 0 0 512 512;" xml:space="preserve">
<path style="fill:#FF4F4F;" d="M117.67,503.969v-21.554c0-14.111,11.48-25.59,25.59-25.59h225.481c14.111,0,25.59,11.48,25.59,25.59
	v21.554H117.67z"/>
<path style="fill:#CC3F3F;" d="M159.624,460.84c-10.629,0-19.275-8.647-19.275-19.275v-2.56c0-10.635,8.647-19.285,19.275-19.285
	h192.753c10.629,0,19.275,8.651,19.275,19.285v2.56c0,10.629-8.647,19.275-19.275,19.275H159.624z"/>
<rect x="88.878" y="252.737" style="fill:#FF4F4F;" width="32.276" height="40.187"/>
<rect x="117.67" y="210.924" style="fill:#CC3F3F;" width="47.747" height="123.814"/>
<path style="fill:#FF4F4F;" d="M256.001,292.924c-11.082,0-20.099-9.016-20.099-20.1c0-11.076,9.016-20.088,20.099-20.088
	c11.082,0,20.098,9.012,20.098,20.088C276.099,283.908,267.083,292.924,256.001,292.924z"/>
<path style="fill:#CC3F3F;" d="M256.001,334.738c-34.138,0-61.912-27.773-61.912-61.912c0-34.133,27.773-61.902,61.912-61.902
	s61.912,27.768,61.912,61.902C317.912,306.964,290.139,334.738,256.001,334.738z M256.001,256.753
	c-8.868,0-16.083,7.21-16.083,16.073c0,8.869,7.215,16.084,16.083,16.084c8.868,0,16.083-7.215,16.083-16.084
	C272.083,263.963,264.868,256.753,256.001,256.753z"/>
<g>
	<path style="fill:#FF4F4F;" d="M161.993,423.735V177.152h188.014v246.583L161.993,423.735L161.993,423.735z M256.001,214.94
		c-31.924,0-57.896,25.967-57.896,57.886c0,31.924,25.972,57.896,57.896,57.896s57.896-25.972,57.896-57.896
		C313.897,240.907,287.924,214.94,256.001,214.94z"/>
	<rect x="390.847" y="252.737" style="fill:#FF4F4F;" width="32.276" height="40.187"/>
</g>
<g>
	<rect x="346.584" y="210.924" style="fill:#CC3F3F;" width="47.747" height="123.814"/>
	<path style="fill:#CC3F3F;" d="M156.08,181.168c-12.173,0-22.076-9.908-22.076-22.086V156.1c0-12.173,9.904-22.076,22.076-22.076
		h199.841c12.173,0,22.075,9.904,22.075,22.076v2.982c0,12.179-9.903,22.086-22.075,22.086H156.08z"/>
	<rect x="232.097" y="8.031" style="fill:#CC3F3F;" width="47.807" height="50.517"/>
</g>
<path style="fill:#FF4F4F;" d="M161.993,138.039v-8.051c0-41.606,33.849-75.455,75.455-75.455h37.105
	c41.606,0,75.454,33.849,75.454,75.455v8.051H161.993z"/>
<path d="M119.678,202.893c-5.545,0-10.039,4.496-10.039,10.039v31.774H90.886c-5.545,0-10.039,4.496-10.039,10.039v36.171
	c0,5.544,4.495,10.039,10.039,10.039h18.753v31.773c0,5.544,4.495,10.039,10.039,10.039h34.284v69.514
	c-12.348,2.615-21.645,13.601-21.645,26.722v2.56c0,3.011,0.497,5.905,1.4,8.616c-13.904,4.123-24.079,17.009-24.079,32.234v19.547
	c0,5.544,4.495,10.039,10.039,10.039h272.645c5.544,0,10.039-4.496,10.039-10.039v-19.546c0-15.224-10.175-28.111-24.079-32.234
	c0.904-2.711,1.4-5.606,1.4-8.616v-2.56c0-13.121-9.296-24.107-21.646-26.722v-69.514h34.284c5.544,0,10.039-4.496,10.039-10.039
	v-31.774h18.753c5.544,0,10.039-4.496,10.039-10.039v-36.171c0-5.544-4.496-10.039-10.039-10.039h-18.753v-31.774
	c0-5.544-4.496-10.039-10.039-10.039h-34.284v-13.776c15.616-1.092,27.989-14.141,27.989-30.034v-2.982
	c0-15.923-12.426-28.99-28.089-30.032c-1.846-39.716-31.569-72.258-70.004-78.48v-37.55C287.934,4.496,283.439,0,277.895,0h-43.791
	c-5.545,0-10.039,4.496-10.039,10.039v37.55c-38.435,6.22-68.158,38.763-70.004,78.479c-15.662,1.043-28.089,14.11-28.089,30.032
	v2.982c0,15.894,12.373,28.942,27.989,30.034v13.777H119.678z M109.107,280.877h-8.182v-16.093h8.182V280.877z M153.37,322.691
	h-23.652v-99.72h23.652V322.691z M402.895,264.784h8.181v16.093h-8.181V264.784z M358.632,222.971h23.652v99.72h-23.652V222.971z
	 M337.961,189.199v222.489H174.04V189.199H337.961z M382.284,482.414v9.507H129.717v-9.507c0-7.467,6.076-13.543,13.543-13.543
	h225.481C376.209,468.872,382.284,474.947,382.284,482.414z M359.605,441.565c0,3.986-3.243,7.228-7.228,7.228H159.624
	c-3.986,0-7.228-3.243-7.228-7.228v-2.56c0-3.992,3.243-7.238,7.228-7.238h192.753c3.986,0,7.228,3.247,7.228,7.238V441.565z
	 M244.144,20.078h23.713v26.423h-23.713V20.078z M237.448,66.58h37.105c33.619,0,61.197,26.305,63.268,59.412H174.18
	C176.25,92.886,203.829,66.58,237.448,66.58z M146.051,159.081V156.1c0-5.531,4.499-10.029,10.029-10.029h199.841
	c5.53,0,10.028,4.499,10.028,10.029v2.982c0,5.536-4.499,10.039-10.028,10.039H156.08
	C150.551,169.121,146.051,164.617,146.051,159.081z"/>
<path d="M256.001,342.769c38.567,0,69.943-31.377,69.943-69.943c0-38.562-31.377-69.933-69.943-69.933s-69.943,31.372-69.943,69.933
	C186.057,311.392,217.434,342.769,256.001,342.769z M256.001,222.971c27.495,0,49.865,22.364,49.865,49.855
	c0,27.495-22.369,49.865-49.865,49.865s-49.865-22.369-49.865-49.865C206.136,245.335,228.505,222.971,256.001,222.971z"/>
<path d="M256.001,300.956c15.511,0,28.13-12.619,28.13-28.131c0-15.505-12.618-28.12-28.13-28.12s-28.13,12.614-28.13,28.12
	C227.871,288.336,240.49,300.956,256.001,300.956z M256.001,264.784c4.439,0,8.051,3.607,8.051,8.041
	c0,4.44-3.612,8.052-8.051,8.052c-4.439,0-8.051-3.612-8.051-8.052C247.949,268.391,251.561,264.784,256.001,264.784z"/>
<path d="M283.136,370.781h-86.003c-5.545,0-10.039,4.496-10.039,10.039c0,5.544,4.495,10.039,10.039,10.039h86.003
	c5.544,0,10.039-4.496,10.039-10.039C293.175,375.277,288.679,370.781,283.136,370.781z"/>
<path d="M314.87,370.781c-12.919,0-12.941,20.078,0,20.078C327.789,390.86,327.811,370.781,314.87,370.781z"/>
<g>
</g>
<g>
</g>
<g>
</g>
<g>
</g>
<g>
</g>
<g>
</g>
<g>
</g>
<g>
</g>
<g>
</g>
<g>
</g>
<g>
</g>
<g>
</g>
<g>
</g>
<g>
</g>
<g>
</g>
</svg>
