<?xml version="1.0" encoding="iso-8859-1"?>
<!-- Generator: Adobe Illustrator 19.0.0, SVG Export Plug-In . SVG Version: 6.00 Build 0)  -->
<svg version="1.1" id="Layer_1" xmlns="http://www.w3.org/2000/svg" xmlns:xlink="http://www.w3.org/1999/xlink" x="0px" y="0px"
	 viewBox="0 0 503.607 503.607" style="enable-background:new 0 0 503.607 503.607;" xml:space="preserve">
<g transform="translate(1 1)">
	<path style="fill:#54C9FD;" d="M7.393,309.557h41.967V242.41H7.393V309.557z"/>
	<path style="fill:#FFDD09;" d="M49.361,460.639h268.59V208.836H49.361V460.639z"/>
	<path style="fill:#FD9808;" d="M292.77,460.639h25.18V208.836h-25.18V460.639z"/>
	<path style="fill:#FFFFFF;" d="M49.361,460.639h25.18V208.836h-25.18V460.639z"/>
	<path style="fill:#FFDD09;" d="M359.918,494.213H7.393c0-18.466,15.108-33.574,33.574-33.574h285.377
		C344.81,460.639,359.918,475.747,359.918,494.213"/>
	<path style="fill:#FD9808;" d="M326.344,460.639h-25.18c18.466,0,33.574,15.108,33.574,33.574h25.18
		C359.918,475.747,344.81,460.639,326.344,460.639"/>
	<path style="fill:#FFFFFF;" d="M40.967,460.639h25.18c-18.466,0-33.574,15.108-33.574,33.574H7.393
		C7.393,475.747,22.502,460.639,40.967,460.639"/>
	<path style="fill:#FFDD09;" d="M347.328,208.836H20.823c-7.554,0-13.43-5.875-13.43-12.59v-7.554c0-7.554,5.875-13.43,13.43-13.43
		h326.505c6.715,0,12.59,5.875,12.59,12.59v7.554C359.918,202.961,354.043,208.836,347.328,208.836"/>
	<path style="fill:#FD9808;" d="M347.328,175.262h-25.18c6.715,0,12.59,5.875,12.59,12.59v7.554c0,7.554-5.875,12.59-12.59,12.59
		h25.18c6.715,0,12.59-5.875,12.59-12.59v-7.554C359.918,181.138,354.043,175.262,347.328,175.262"/>
	<g>
		<path style="fill:#FFFFFF;" d="M20.823,208.836h25.18c-7.554,0-13.43-5.875-13.43-12.59v-7.554c0-7.554,5.875-13.43,13.43-13.43
			h-25.18c-7.554,0-13.43,5.875-13.43,12.59v7.554C7.393,202.961,13.269,208.836,20.823,208.836"/>
		<path style="fill:#FFFFFF;" d="M7.393,309.557H24.18V242.41H7.393V309.557z"/>
	</g>
	<path style="fill:#54C9FD;" d="M317.951,309.557h33.574V242.41h-33.574V309.557z"/>
	<path style="fill:#33A9F8;" d="M494.213,376.705c-18.466,0-41.967-15.108-41.967-33.574c0-55.397-45.325-100.721-100.721-100.721
		v67.148c18.466,0,33.574,15.108,33.574,33.574c0,55.397,53.718,100.721,109.115,100.721"/>
	<path style="fill:#54C9FD;" d="M225.623,250.803v58.754h-83.934v-58.754H99.721v167.869h41.967v-67.148h83.934v67.148h41.967
		V250.803H225.623z"/>
	<path style="fill:#FFDD09;" d="M49.361,175.262c0-73.862,60.433-134.295,134.295-134.295S317.951,101.4,317.951,175.262H49.361z"/>
	<path style="fill:#FD9808;" d="M183.656,40.967c-4.197,0-8.393,0-12.59,0.839c67.987,5.875,121.705,63.79,121.705,133.456h25.18
		C317.951,101.4,258.357,40.967,183.656,40.967"/>
	<path style="fill:#FFFFFF;" d="M183.656,40.967c4.197,0,8.393,0,12.59,0.839c-67.987,5.875-121.705,63.79-121.705,133.456h-25.18
		C49.361,101.4,109.793,40.967,183.656,40.967"/>
	<path style="fill:#FFDD09;" d="M183.656,40.967c5.875,0,10.911,0.839,16.787,0.839V24.18c0-9.233-7.554-16.787-16.787-16.787
		s-16.787,7.554-16.787,16.787v17.626C172.744,41.807,177.78,40.967,183.656,40.967"/>
	<path d="M359.918,502.607H7.393c-5.036,0-8.393-3.357-8.393-8.393c0-23.502,18.466-41.967,41.967-41.967h285.377
		c23.502,0,41.967,18.466,41.967,41.967C368.311,499.249,364.954,502.607,359.918,502.607z M17.466,485.82h333.22
		c-3.357-10.072-12.59-16.787-23.502-16.787H40.967C30.056,469.033,20.823,475.747,17.466,485.82z"/>
	<path d="M347.328,217.229H20.823C9.072,217.229-1,207.997-1,196.246v-7.554c0-11.751,9.233-20.984,20.984-20.984h326.505
		c11.751,0,20.984,9.233,20.984,20.984v7.554C368.311,207.997,359.079,217.229,347.328,217.229z M20.823,183.656
		c-2.518,0-5.036,1.679-5.036,4.197v7.554c0,3.357,2.518,5.036,5.036,5.036h326.505c2.518,0,4.197-1.679,4.197-4.197v-7.554
		c0-2.518-1.679-4.197-4.197-4.197H20.823V183.656z"/>
	<path d="M317.951,469.033H49.361c-5.036,0-8.393-3.357-8.393-8.393V208.836c0-5.036,3.357-8.393,8.393-8.393h268.59
		c5.036,0,8.393,3.357,8.393,8.393v251.803C326.344,465.675,322.987,469.033,317.951,469.033z M57.754,452.246h251.803V217.229
		H57.754V452.246z"/>
	<path id="SVGCleanerId_0" d="M317.951,183.656H49.361c-5.036,0-8.393-3.357-8.393-8.393c0-78.898,63.79-142.689,142.689-142.689
		s142.689,63.79,142.689,142.689C326.344,180.298,322.987,183.656,317.951,183.656z M57.754,166.869h251.803
		C305.361,101.4,250.803,49.361,183.656,49.361S62.79,101.4,57.754,166.869z"/>
	<path d="M351.525,317.951h-33.574c-5.036,0-8.393-3.357-8.393-8.393V242.41c0-5.036,3.357-8.393,8.393-8.393h33.574
		c5.036,0,8.393,3.357,8.393,8.393v67.148C359.918,314.593,356.561,317.951,351.525,317.951z M326.344,301.164h16.787v-50.361
		h-16.787V301.164z"/>
	<path id="SVGCleanerId_1" d="M49.361,317.951H7.393c-5.036,0-8.393-3.357-8.393-8.393V242.41c0-5.036,3.357-8.393,8.393-8.393
		h41.967c5.036,0,8.393,3.357,8.393,8.393v67.148C57.754,314.593,54.397,317.951,49.361,317.951z M15.787,301.164h25.18v-50.361
		h-25.18V301.164z"/>
	<path id="SVGCleanerId_2" d="M267.59,427.066h-41.967c-5.036,0-8.393-3.357-8.393-8.393v-58.754h-67.148v58.754
		c0,5.036-3.357,8.393-8.393,8.393H99.721c-5.036,0-8.393-3.357-8.393-8.393V250.803c0-5.036,3.357-8.393,8.393-8.393h41.967
		c5.036,0,8.393,3.357,8.393,8.393v50.361h67.148v-50.361c0-5.036,3.357-8.393,8.393-8.393h41.967c5.036,0,8.393,3.357,8.393,8.393
		v167.869C275.984,423.708,272.626,427.066,267.59,427.066z M234.016,410.279h25.18V259.197h-25.18v50.361
		c0,5.036-3.357,8.393-8.393,8.393h-83.934c-5.036,0-8.393-3.357-8.393-8.393v-50.361h-25.18v151.082h25.18v-58.754
		c0-5.036,3.357-8.393,8.393-8.393h83.934c5.036,0,8.393,3.357,8.393,8.393V410.279z"/>
	<path d="M200.443,50.2h-0.839c-11.751-1.679-19.305-1.679-31.895,0c-2.518,0-5.036-0.839-6.715-1.679
		c-1.679-1.679-2.518-4.197-2.518-6.715V24.18c0-14.269,10.911-25.18,25.18-25.18s25.18,10.911,25.18,25.18v17.626
		c0,2.518-0.839,5.036-2.518,5.875C204.639,50.2,202.961,50.2,200.443,50.2z M183.656,32.574c2.518,0,5.875,0,8.393,0V24.18
		c0-5.036-3.357-8.393-8.393-8.393s-8.393,3.357-8.393,8.393v8.393C178.62,32.574,181.138,32.574,183.656,32.574z"/>
	<path d="M494.213,452.246c-62.951,0-117.508-51.2-117.508-109.115c0-14.269-10.911-25.18-25.18-25.18
		c-5.036,0-8.393-3.357-8.393-8.393V242.41c0-5.036,3.357-8.393,8.393-8.393c60.433,0,109.115,48.682,109.115,109.115
		c0,12.59,19.305,25.18,33.574,25.18c5.036,0,8.393,3.357,8.393,8.393v67.148C502.607,448.888,499.249,452.246,494.213,452.246z
		 M359.918,302.003c19.305,4.197,33.574,20.984,33.574,41.128c0,47.003,41.967,88.131,92.328,92.328v-50.361
		c-20.984-3.357-41.967-20.144-41.967-41.128c0-47.843-36.931-87.292-83.934-92.328V302.003z"/>
	<g>
		<path id="SVGCleanerId_0_1_" d="M317.951,183.656H49.361c-5.036,0-8.393-3.357-8.393-8.393
			c0-78.898,63.79-142.689,142.689-142.689s142.689,63.79,142.689,142.689C326.344,180.298,322.987,183.656,317.951,183.656z
			 M57.754,166.869h251.803C305.361,101.4,250.803,49.361,183.656,49.361S62.79,101.4,57.754,166.869z"/>
	</g>
	<g>
		<path id="SVGCleanerId_2_1_" d="M267.59,427.066h-41.967c-5.036,0-8.393-3.357-8.393-8.393v-58.754h-67.148v58.754
			c0,5.036-3.357,8.393-8.393,8.393H99.721c-5.036,0-8.393-3.357-8.393-8.393V250.803c0-5.036,3.357-8.393,8.393-8.393h41.967
			c5.036,0,8.393,3.357,8.393,8.393v50.361h67.148v-50.361c0-5.036,3.357-8.393,8.393-8.393h41.967c5.036,0,8.393,3.357,8.393,8.393
			v167.869C275.984,423.708,272.626,427.066,267.59,427.066z M234.016,410.279h25.18V259.197h-25.18v50.361
			c0,5.036-3.357,8.393-8.393,8.393h-83.934c-5.036,0-8.393-3.357-8.393-8.393v-50.361h-25.18v151.082h25.18v-58.754
			c0-5.036,3.357-8.393,8.393-8.393h83.934c5.036,0,8.393,3.357,8.393,8.393V410.279z"/>
	</g>
	<g>
		<path id="SVGCleanerId_1_1_" d="M49.361,317.951H7.393c-5.036,0-8.393-3.357-8.393-8.393V242.41c0-5.036,3.357-8.393,8.393-8.393
			h41.967c5.036,0,8.393,3.357,8.393,8.393v67.148C57.754,314.593,54.397,317.951,49.361,317.951z M15.787,301.164h25.18v-50.361
			h-25.18V301.164z"/>
	</g>
</g>
<g>
</g>
<g>
</g>
<g>
</g>
<g>
</g>
<g>
</g>
<g>
</g>
<g>
</g>
<g>
</g>
<g>
</g>
<g>
</g>
<g>
</g>
<g>
</g>
<g>
</g>
<g>
</g>
<g>
</g>
</svg>
